<?xml version="1.0" encoding="UTF-8" ?>
<!DOCTYPE svg PUBLIC "-//W3C//DTD SVG 1.1//EN" "http://www.w3.org/Graphics/SVG/1.1/DTD/svg11.dtd">
<svg width="1001pt" height="1000pt" viewBox="0 0 1001 1000" version="1.1" xmlns="http://www.w3.org/2000/svg">
<g id="#fc6e51ff">
<path fill="#fc6e51" opacity="1.00" d=" M 485.66 0.00 L 516.33 0.00 C 529.67 0.84 543.06 1.11 556.32 2.88 C 567.46 4.39 578.67 5.49 589.72 7.61 C 610.76 11.58 631.70 16.36 652.05 23.07 C 699.73 38.02 744.99 60.47 786.07 88.87 C 843.34 128.85 892.45 180.61 928.63 240.39 C 959.58 291.30 981.41 347.79 992.45 406.36 C 994.94 418.76 996.35 431.35 998.04 443.89 C 999.84 457.44 1000.17 471.12 1001.00 484.75 L 1001.00 489.93 C 995.86 483.49 989.75 477.91 984.05 471.99 C 974.91 463.46 966.52 454.18 957.49 445.55 C 951.92 440.44 946.97 434.71 941.50 429.51 C 933.07 421.61 925.38 412.97 916.97 405.05 C 910.54 399.02 904.72 392.39 898.29 386.36 C 891.61 380.17 885.63 373.26 879.01 367.01 C 870.41 358.95 862.54 350.14 853.97 342.05 C 847.74 336.26 842.20 329.78 835.92 324.04 C 827.81 316.15 820.18 307.77 811.89 300.06 C 807.01 295.30 802.46 290.21 797.43 285.61 C 790.04 278.67 783.37 271.00 776.01 264.02 C 769.01 257.46 762.52 250.38 755.67 243.65 C 753.13 240.89 750.21 238.49 746.91 236.70 C 746.47 235.00 746.35 233.05 745.15 231.68 C 742.84 231.00 740.41 231.42 738.09 231.72 C 733.37 232.46 728.68 233.36 723.95 233.98 C 712.60 235.46 701.39 237.74 690.06 239.28 C 666.31 243.27 642.49 246.85 618.73 250.78 C 592.40 255.17 566.01 259.15 539.68 263.53 C 526.29 265.31 513.05 267.97 499.67 269.76 C 452.26 277.27 404.88 284.94 357.50 292.60 C 328.13 297.35 298.71 301.82 269.33 306.54 C 258.92 308.43 248.45 309.94 238.00 311.52 C 238.29 315.19 238.66 318.86 239.29 322.49 C 241.99 337.93 244.16 353.46 246.80 368.90 C 247.77 374.80 248.74 380.71 249.53 386.64 C 250.82 396.04 250.17 405.55 250.28 415.00 C 250.36 432.54 250.17 450.07 250.33 467.60 C 252.16 467.66 253.99 467.73 255.82 467.80 C 255.99 469.44 256.16 471.09 256.34 472.75 C 257.88 472.87 259.43 473.00 260.98 473.14 C 261.02 562.43 260.99 651.71 261.00 741.00 C 261.11 750.25 260.76 759.50 261.10 768.75 C 265.60 770.65 269.09 774.11 272.38 777.63 C 328.16 833.49 384.02 889.25 439.82 945.09 C 447.50 952.49 454.65 960.41 462.42 967.72 C 470.63 975.80 478.71 984.02 486.89 992.14 C 489.93 995.03 492.28 999.32 496.81 1000.00 L 485.73 1000.00 C 471.01 999.13 456.25 998.74 441.65 996.60 C 366.85 988.07 294.25 961.77 230.94 921.10 C 145.74 866.53 77.70 785.53 39.03 692.01 C 24.36 656.77 13.66 619.85 7.61 582.16 C 3.88 558.62 1.11 534.85 1.12 510.99 C 1.12 507.59 0.65 504.22 0.00 500.89 L 0.00 500.11 C 0.65 496.78 1.13 493.41 1.11 490.01 C 1.07 474.86 2.15 459.73 3.86 444.69 C 6.01 427.65 8.40 410.62 12.09 393.84 C 24.13 338.32 45.72 284.88 75.68 236.62 C 111.25 179.05 158.84 129.06 214.15 90.14 C 272.04 49.55 338.63 21.38 408.14 8.41 C 420.80 5.77 433.69 4.49 446.50 2.78 C 459.49 1.09 472.60 0.83 485.66 0.00 Z" />
</g>
<g id="#4f5a69ff">
<path fill="#4f5a69" opacity="1.00" d=" M 738.09 231.72 C 740.41 231.42 742.84 231.00 745.15 231.68 C 746.35 233.05 746.47 235.00 746.91 236.70 C 747.21 240.76 747.43 244.83 748.13 248.84 C 750.16 260.58 752.02 272.34 753.85 284.11 C 755.01 292.31 757.08 300.41 757.17 308.74 C 597.21 334.26 437.29 359.92 277.33 385.43 C 271.42 386.18 265.51 387.04 259.73 388.53 C 265.82 388.74 271.91 388.67 278.00 388.64 C 433.33 388.65 588.67 388.64 744.00 388.65 C 750.69 388.57 757.39 388.51 764.08 388.88 C 764.70 409.58 764.10 430.29 764.35 451.00 C 764.47 456.50 764.35 462.00 763.93 467.48 C 761.32 467.66 758.71 467.85 756.12 468.05 C 755.89 474.36 755.94 480.68 756.00 487.00 C 756.00 569.33 756.00 651.67 756.00 734.00 C 755.90 745.70 756.20 757.39 755.91 769.09 C 748.94 769.47 741.96 769.38 735.00 769.31 C 580.00 769.34 425.00 769.30 270.00 769.33 C 267.02 769.28 264.05 769.04 261.10 768.75 C 260.76 759.50 261.11 750.25 261.00 741.00 C 260.99 651.71 261.02 562.43 260.98 473.14 C 260.96 471.41 260.93 469.69 260.91 467.97 C 259.21 467.91 257.51 467.85 255.82 467.80 C 253.99 467.73 252.16 467.66 250.33 467.60 C 250.17 450.07 250.36 432.54 250.28 415.00 C 250.17 405.55 250.82 396.04 249.53 386.64 C 248.74 380.71 247.77 374.80 246.80 368.90 C 244.16 353.46 241.99 337.93 239.29 322.49 C 238.66 318.86 238.29 315.19 238.00 311.52 C 248.45 309.94 258.92 308.43 269.33 306.54 C 298.71 301.82 328.13 297.35 357.50 292.60 C 404.88 284.94 452.26 277.27 499.67 269.76 C 513.05 267.97 526.29 265.31 539.68 263.53 C 566.01 259.15 592.40 255.17 618.73 250.78 C 642.49 246.85 666.31 243.27 690.06 239.28 C 701.39 237.74 712.60 235.46 723.95 233.98 C 728.68 233.36 733.37 232.46 738.09 231.72 M 665.31 250.03 C 656.89 251.24 648.44 252.26 640.13 254.12 C 641.37 256.11 642.63 258.09 643.98 260.01 C 654.55 274.81 664.95 289.72 675.46 304.56 C 677.72 307.65 679.55 311.13 682.42 313.73 C 684.77 314.00 687.12 313.59 689.45 313.26 C 696.91 312.01 704.32 310.37 711.85 309.57 C 715.45 309.21 719.02 308.50 722.45 307.32 C 709.65 288.59 696.21 270.31 683.39 251.59 C 682.35 250.25 681.38 248.70 679.83 247.91 C 674.90 247.68 670.15 249.38 665.31 250.03 M 577.71 263.82 C 567.28 266.09 556.56 266.63 546.15 269.01 C 559.19 287.86 572.67 306.41 585.65 325.31 C 586.50 326.49 587.39 327.67 588.50 328.65 C 592.37 329.22 596.19 327.88 599.99 327.29 C 609.48 325.39 619.34 325.29 628.60 322.29 C 625.07 316.61 620.99 311.30 617.18 305.81 C 607.84 292.50 598.37 279.27 589.14 265.88 C 588.16 264.80 587.39 263.21 585.86 262.90 C 583.11 262.69 580.39 263.32 577.71 263.82 M 465.97 281.83 C 461.58 282.38 457.19 282.90 452.83 283.65 C 453.87 285.71 454.98 287.75 456.29 289.66 C 467.03 304.63 477.56 319.76 488.22 334.79 C 490.32 337.69 492.03 340.94 494.64 343.43 C 498.40 344.34 502.27 342.76 506.04 342.38 C 515.75 341.13 525.33 339.05 535.04 337.71 C 533.60 335.27 532.09 332.87 530.44 330.57 C 517.84 313.02 505.60 295.21 492.96 277.69 C 483.84 278.24 475.00 280.70 465.97 281.83 M 380.97 295.28 C 373.67 296.76 366.26 297.51 358.90 298.61 C 360.01 300.61 361.16 302.60 362.47 304.49 C 373.04 319.28 383.48 334.17 393.97 349.02 C 396.38 352.31 398.33 356.01 401.42 358.74 C 404.14 358.89 406.82 358.26 409.50 357.81 C 415.39 356.69 421.39 356.18 427.29 355.04 C 432.10 354.10 436.94 353.32 441.80 352.74 C 429.95 336.07 418.21 319.31 406.40 302.60 C 403.97 299.29 402.08 295.46 398.84 292.85 C 392.80 292.78 386.91 294.39 380.97 295.28 M 296.95 308.72 C 286.25 310.12 275.74 312.79 264.95 313.54 C 267.61 317.98 270.68 322.15 273.69 326.36 C 282.75 339.26 291.89 352.11 300.93 365.03 C 302.99 367.88 304.70 371.07 307.35 373.44 C 308.29 373.64 309.25 373.69 310.22 373.59 C 319.92 372.71 329.36 370.14 339.03 369.13 C 341.90 368.78 344.73 368.17 347.52 367.40 C 344.00 361.69 339.92 356.38 336.11 350.88 C 326.93 337.75 317.58 324.74 308.51 311.54 C 307.63 310.35 306.73 309.15 305.59 308.20 C 302.74 307.48 299.80 308.42 296.95 308.72 M 277.01 395.07 C 283.80 410.33 292.09 424.86 298.93 440.09 C 302.46 446.97 305.64 454.01 309.18 460.88 C 322.82 461.10 336.46 461.06 350.10 460.90 C 346.51 452.87 342.39 445.10 338.78 437.08 C 331.46 423.25 325.06 408.97 317.86 395.09 C 304.24 394.90 290.62 394.97 277.01 395.07 M 371.97 395.04 C 375.41 403.29 379.79 411.09 383.77 419.08 C 390.38 433.11 397.16 447.06 404.14 460.91 C 417.77 461.11 431.41 461.00 445.04 460.95 C 441.18 451.97 436.31 443.47 432.35 434.53 C 430.03 429.34 427.33 424.34 424.75 419.28 C 420.66 411.28 417.06 403.03 412.80 395.11 C 399.19 394.87 385.58 395.00 371.97 395.04 M 466.86 395.10 C 469.01 400.11 471.64 404.89 474.13 409.74 C 482.24 426.90 490.50 444.00 499.15 460.90 C 512.75 461.11 526.36 461.02 539.96 460.94 C 534.61 449.45 528.85 438.15 523.31 426.76 C 518.53 416.02 512.79 405.74 507.81 395.10 C 494.17 394.92 480.51 394.92 466.86 395.10 M 561.93 395.06 C 572.07 417.05 583.08 438.64 593.72 460.37 C 596.69 461.37 599.91 461.00 603.01 461.06 C 613.51 460.81 624.01 461.27 634.51 460.84 C 632.57 454.74 629.09 449.33 626.45 443.55 C 621.67 433.34 616.33 423.40 611.70 413.11 C 608.87 407.06 605.73 401.16 602.72 395.20 C 589.13 394.77 575.53 395.04 561.93 395.06 M 656.96 395.03 C 658.64 399.50 660.70 403.82 662.89 408.06 C 668.70 419.87 674.33 431.77 680.44 443.43 C 683.50 449.18 685.72 455.34 689.02 460.97 C 702.50 460.97 716.00 461.18 729.48 460.85 C 728.46 457.84 727.32 454.86 725.83 452.05 C 719.24 439.81 713.54 427.12 707.24 414.73 C 703.87 408.32 701.28 401.53 697.76 395.19 C 684.17 394.77 670.56 395.06 656.96 395.03 M 335.83 526.90 C 335.52 532.59 335.58 538.29 335.63 544.00 C 335.62 591.67 335.63 639.34 335.63 687.00 C 335.58 692.64 335.52 698.29 335.82 703.92 C 341.21 704.06 346.61 704.03 352.00 704.00 C 457.67 704.00 563.33 704.00 669.00 704.00 C 674.57 704.05 680.15 704.07 685.73 703.86 C 685.65 644.90 685.67 585.94 685.73 526.98 C 680.16 526.55 674.58 526.61 669.00 526.69 C 563.34 526.68 457.67 526.69 352.00 526.68 C 346.61 526.61 341.21 526.61 335.83 526.90 Z" />
</g>
<g id="#e06248ff">
<path fill="#e06248" opacity="1.00" d=" M 746.91 236.70 C 750.21 238.49 753.13 240.89 755.67 243.65 C 762.52 250.38 769.01 257.46 776.01 264.02 C 783.37 271.00 790.04 278.67 797.43 285.61 C 802.46 290.21 807.01 295.30 811.89 300.06 C 820.18 307.77 827.81 316.15 835.92 324.04 C 842.20 329.78 847.74 336.26 853.97 342.05 C 862.54 350.14 870.41 358.95 879.01 367.01 C 885.63 373.26 891.61 380.17 898.29 386.36 C 904.72 392.39 910.54 399.02 916.97 405.05 C 925.38 412.97 933.07 421.61 941.50 429.51 C 946.97 434.71 951.92 440.44 957.49 445.55 C 966.52 454.18 974.91 463.46 984.05 471.99 C 989.75 477.91 995.86 483.49 1001.00 489.93 L 1001.00 522.34 C 1000.05 533.37 999.68 544.45 998.32 555.44 C 991.58 617.08 973.20 677.45 944.29 732.31 C 905.22 806.91 846.93 871.31 776.63 917.66 C 711.23 961.11 635.37 988.60 557.33 997.23 C 546.05 998.64 534.67 999.03 523.35 1000.00 L 496.81 1000.00 C 492.28 999.32 489.93 995.03 486.89 992.14 C 478.71 984.02 470.63 975.80 462.42 967.72 C 454.65 960.41 447.50 952.49 439.82 945.09 C 384.02 889.25 328.16 833.49 272.38 777.63 C 269.09 774.11 265.60 770.65 261.10 768.75 C 264.05 769.04 267.02 769.28 270.00 769.33 C 425.00 769.30 580.00 769.34 735.00 769.31 C 741.96 769.38 748.94 769.47 755.91 769.09 C 756.20 757.39 755.90 745.70 756.00 734.00 C 756.00 651.67 756.00 569.33 756.00 487.00 C 755.94 480.68 755.89 474.36 756.12 468.05 C 758.71 467.85 761.32 467.66 763.93 467.48 C 764.35 462.00 764.47 456.50 764.35 451.00 C 764.10 430.29 764.70 409.58 764.08 388.88 C 757.39 388.51 750.69 388.57 744.00 388.65 C 588.67 388.64 433.33 388.65 278.00 388.64 C 271.91 388.67 265.82 388.74 259.73 388.53 C 265.51 387.04 271.42 386.18 277.33 385.43 C 437.29 359.92 597.21 334.26 757.17 308.74 C 757.08 300.41 755.01 292.31 753.85 284.11 C 752.02 272.34 750.16 260.58 748.13 248.84 C 747.43 244.83 747.21 240.76 746.91 236.70 Z" />
<path fill="#e06248" opacity="1.00" d=" M 255.82 467.80 C 257.51 467.85 259.21 467.91 260.91 467.97 C 260.93 469.69 260.96 471.41 260.98 473.14 C 259.43 473.00 257.88 472.87 256.34 472.75 C 256.16 471.09 255.99 469.44 255.82 467.80 Z" />
</g>
<g id="#ffffffff">
<path fill="#ffffff" opacity="1.00" d=" M 665.31 250.03 C 670.15 249.38 674.90 247.68 679.83 247.91 C 681.38 248.70 682.35 250.25 683.39 251.59 C 696.21 270.31 709.65 288.59 722.45 307.32 C 719.02 308.50 715.45 309.21 711.85 309.57 C 704.32 310.37 696.91 312.01 689.45 313.26 C 687.12 313.59 684.77 314.00 682.42 313.73 C 679.55 311.13 677.72 307.65 675.46 304.56 C 664.95 289.72 654.55 274.81 643.98 260.01 C 642.63 258.09 641.37 256.11 640.13 254.12 C 648.44 252.26 656.89 251.24 665.31 250.03 Z" />
<path fill="#ffffff" opacity="1.00" d=" M 577.71 263.82 C 580.39 263.32 583.11 262.69 585.86 262.90 C 587.39 263.21 588.16 264.80 589.14 265.88 C 598.37 279.27 607.84 292.50 617.18 305.81 C 620.99 311.30 625.07 316.61 628.60 322.29 C 619.34 325.29 609.48 325.39 599.99 327.29 C 596.19 327.88 592.37 329.22 588.50 328.65 C 587.39 327.67 586.50 326.49 585.65 325.31 C 572.67 306.41 559.19 287.86 546.15 269.01 C 556.56 266.63 567.28 266.09 577.71 263.82 Z" />
<path fill="#ffffff" opacity="1.00" d=" M 465.97 281.83 C 475.00 280.70 483.84 278.24 492.96 277.69 C 505.60 295.21 517.84 313.02 530.44 330.57 C 532.09 332.87 533.60 335.27 535.04 337.71 C 525.33 339.05 515.75 341.13 506.04 342.38 C 502.27 342.76 498.40 344.34 494.64 343.43 C 492.03 340.94 490.32 337.69 488.22 334.79 C 477.56 319.76 467.03 304.63 456.29 289.66 C 454.98 287.75 453.87 285.71 452.83 283.65 C 457.19 282.90 461.58 282.38 465.97 281.83 Z" />
<path fill="#ffffff" opacity="1.00" d=" M 380.97 295.28 C 386.91 294.39 392.80 292.78 398.84 292.85 C 402.08 295.46 403.97 299.29 406.40 302.60 C 418.21 319.31 429.95 336.07 441.80 352.74 C 436.94 353.32 432.10 354.10 427.29 355.04 C 421.39 356.18 415.39 356.69 409.50 357.81 C 406.82 358.26 404.14 358.89 401.42 358.74 C 398.33 356.01 396.38 352.31 393.97 349.02 C 383.48 334.17 373.04 319.28 362.47 304.49 C 361.16 302.60 360.01 300.61 358.90 298.61 C 366.26 297.51 373.67 296.76 380.97 295.28 Z" />
<path fill="#ffffff" opacity="1.00" d=" M 296.95 308.72 C 299.80 308.42 302.74 307.48 305.59 308.20 C 306.73 309.15 307.63 310.35 308.51 311.54 C 317.58 324.74 326.93 337.75 336.11 350.88 C 339.92 356.38 344.00 361.69 347.52 367.40 C 344.73 368.17 341.90 368.78 339.03 369.13 C 329.36 370.14 319.92 372.71 310.22 373.59 C 309.25 373.69 308.29 373.64 307.35 373.44 C 304.70 371.07 302.99 367.88 300.93 365.03 C 291.89 352.11 282.75 339.26 273.69 326.36 C 270.68 322.15 267.61 317.98 264.95 313.54 C 275.74 312.79 286.25 310.12 296.95 308.72 Z" />
<path fill="#ffffff" opacity="1.00" d=" M 277.01 395.07 C 290.62 394.97 304.24 394.90 317.86 395.09 C 325.06 408.97 331.46 423.25 338.78 437.08 C 342.39 445.10 346.51 452.87 350.10 460.90 C 336.46 461.06 322.82 461.10 309.18 460.88 C 305.64 454.01 302.46 446.97 298.93 440.09 C 292.09 424.86 283.80 410.33 277.01 395.07 Z" />
<path fill="#ffffff" opacity="1.00" d=" M 371.97 395.04 C 385.58 395.00 399.19 394.87 412.80 395.11 C 417.06 403.03 420.66 411.28 424.75 419.28 C 427.33 424.34 430.03 429.34 432.35 434.53 C 436.31 443.47 441.18 451.97 445.04 460.95 C 431.41 461.00 417.77 461.11 404.14 460.91 C 397.16 447.06 390.38 433.11 383.77 419.08 C 379.79 411.09 375.41 403.29 371.97 395.04 Z" />
<path fill="#ffffff" opacity="1.00" d=" M 466.86 395.10 C 480.51 394.92 494.17 394.92 507.81 395.10 C 512.79 405.74 518.53 416.02 523.31 426.76 C 528.85 438.15 534.61 449.45 539.96 460.94 C 526.36 461.02 512.75 461.11 499.15 460.90 C 490.50 444.00 482.24 426.90 474.13 409.74 C 471.64 404.89 469.01 400.11 466.86 395.10 Z" />
<path fill="#ffffff" opacity="1.00" d=" M 561.93 395.06 C 575.53 395.04 589.13 394.77 602.72 395.20 C 605.73 401.16 608.87 407.06 611.70 413.11 C 616.33 423.40 621.67 433.34 626.45 443.55 C 629.09 449.33 632.57 454.74 634.51 460.84 C 624.01 461.27 613.51 460.81 603.01 461.06 C 599.91 461.00 596.69 461.37 593.72 460.37 C 583.08 438.64 572.07 417.05 561.93 395.06 Z" />
<path fill="#ffffff" opacity="1.00" d=" M 656.96 395.03 C 670.56 395.06 684.17 394.77 697.76 395.19 C 701.28 401.53 703.87 408.32 707.24 414.73 C 713.54 427.12 719.24 439.81 725.83 452.05 C 727.32 454.86 728.46 457.84 729.48 460.85 C 716.00 461.18 702.50 460.97 689.02 460.97 C 685.72 455.34 683.50 449.18 680.44 443.43 C 674.33 431.77 668.70 419.87 662.89 408.06 C 660.70 403.82 658.64 399.50 656.96 395.03 Z" />
</g>
<g id="#ffce54ff">
<path fill="#ffce54" opacity="1.00" d=" M 335.83 526.90 C 341.21 526.61 346.61 526.61 352.00 526.68 C 457.67 526.69 563.34 526.68 669.00 526.69 C 674.58 526.61 680.16 526.55 685.73 526.98 C 685.67 585.94 685.65 644.90 685.73 703.86 C 680.15 704.07 674.57 704.05 669.00 704.00 C 563.33 704.00 457.67 704.00 352.00 704.00 C 346.61 704.03 341.21 704.06 335.82 703.92 C 335.52 698.29 335.58 692.64 335.63 687.00 C 335.63 639.34 335.62 591.67 335.63 544.00 C 335.58 538.29 335.52 532.59 335.83 526.90 Z" />
</g>
</svg>
